<?xml version="1.0" encoding="utf-8"?>
<svg
	version="1.1"
	xmlns="http://www.w3.org/2000/svg">
	<g transform="scale(100)">
		<path d="M 0 1 C 0 0 0 0 1.61803398874989484820 0 z" fill="rgb(97,37,37)" />
		<path d="M 0 1 C 1.61803398874989484820 1 1.61803398874989484820 1 1.61803398874989484820 0 z" fill="rgb(157,60,60)" />
		<g transform="translate(1.30901699437494742408,0.19098300562505257593)
			scale(0.44902797657958537243)
			rotate(148.28252558853899467634)">
			<path d="M 0 0
				L 0.93794585982666047686 0.27066542660517330732 S 1 0.30901699437494742410 1 0.23606797749978969641
				L 1 0.19098300562505257589 S 1 0.11803398874989484820 1.07294901687515772769 0.11803398874989484820
				L 1.80901699437494742411 0.11803398874989484820 S 1.88196601125010515180 0.11803398874989484820 1.88196601125010515180 0.19098300562505257589
				L 1.88196601125010515180 0.42705098312484227231 S 1.88196601125010515180 0.5 1.95491502812526287949 0.5
				L 2.04508497187473712051 0.5 S 2.11803398874989484820 0.5 2.11803398874989484820 0.42705098312484227231
				L 2.11803398874989484820 0.19098300562505257589 S 2.11803398874989484820 0.11803398874989484820 2.19098300562505257589 0.11803398874989484820
				L 2.54508497187473712051 0.11803398874989484820 S 2.61803398874989484820 0.11803398874989484820 2.61803398874989484820 0.04508497187473712051
				L 2.61803398874989484820 -0.04508497187473712051 S 2.61803398874989484820 -0.11803398874989484820 2.54508497187473712051 -0.11803398874989484820
				L 2.19098300562505257589 -0.11803398874989484820 S 2.11803398874989484820 -0.11803398874989484820 2.11803398874989484820 -0.19098300562505257589
				L 2.11803398874989484820 -0.42705098312484227231 S 2.11803398874989484820 -0.5 2.04508497187473712051 -0.5
				L 1.95491502812526287949 -0.5 S 1.88196601125010515180 -0.5 1.88196601125010515180 -0.42705098312484227231
				L 1.88196601125010515180 -0.19098300562505257589 S 1.88196601125010515180 -0.11803398874989484820 1.80901699437494742411 -0.11803398874989484820
				L 1.07294901687515772769 -0.11803398874989484820 S 1 -0.11803398874989484820 1 -0.19098300562505257589
				L 1 -0.23606797749978969641 S 1 -0.30901699437494742410 0.93794585982666047686 -0.27066542660517330732 
				z"
				fill="rgb(255,255,255)" />
		</g>
	</g>
</svg>
